<svg width="65" height="65" viewBox="0 0 65 65" fill="none" xmlns="http://www.w3.org/2000/svg">
<rect width="64.1548" height="64.1548" rx="32.0774" fill="#FBFEF9"/>
<path d="M16.8435 40.5774H12.6034L18.1108 24.2547H23.3631L28.8704 40.5774H24.6303L20.7967 28.3672H20.6692L16.8435 40.5774ZM16.2777 34.1535H25.1404V37.1503H16.2777V34.1535Z" fill="black"/>
<path d="M32.7658 40.5774L28.0156 24.2547H32.3752L34.838 34.9505H34.9735L37.7869 24.2547H41.3416L44.155 34.9744H44.2905L46.7612 24.2547H51.1129L46.3707 40.5774H42.569L39.628 30.6786H39.5005L36.5595 40.5774H32.7658Z" fill="black"/>
<path d="M32.7658 40.5774L28.0156 24.2547H32.3752L34.838 34.9505H34.9735L37.7869 24.2547H41.3416L44.155 34.9744H44.2905L46.7612 24.2547H51.1129L46.3707 40.5774H42.569L39.628 30.6786H39.5005L36.5595 40.5774H32.7658Z" fill="#E4572E"/>
</svg>
